<?xml version="1.0" standalone="no"?>
<!DOCTYPE svg PUBLIC "-//W3C//DTD SVG 20010904//EN"
 "http://www.w3.org/TR/2001/REC-SVG-20010904/DTD/svg10.dtd">
<svg version="1.0" xmlns="http://www.w3.org/2000/svg"
 width="400.000000pt" height="400.000000pt" viewBox="0 0 400.000000 400.000000"
 preserveAspectRatio="xMidYMid meet">
<metadata>
Created by potrace 1.14, written by Peter Selinger 2001-2017
</metadata>
<g transform="translate(0.000000,400.000000) scale(0.100000,-0.100000)"
fill="#000000" stroke="none">
<path d="M1591 2906 c-8 -9 -11 -97 -9 -302 l3 -289 170 -5 170 -5 3 -33 c4
-40 -18 -70 -57 -74 -15 -2 -26 -9 -26 -18 0 -13 24 -15 160 -15 136 0 160 2
160 15 0 9 -11 16 -28 18 -34 4 -60 41 -55 79 l3 28 170 5 170 5 3 294 c2 229
-1 296 -10 303 -7 4 -194 8 -414 8 -328 0 -404 -3 -413 -14z m809 -291 l0
-275 -395 0 -395 0 0 268 c0 148 3 272 7 275 3 4 181 7 395 7 l388 0 0 -275z
m-356 -317 c3 -7 7 -32 10 -55 l6 -43 -54 0 -54 0 5 43 c7 64 10 67 48 67 20
0 37 -6 39 -12z"/>
<path d="M1992 2697 c-56 -56 -102 -107 -102 -113 0 -5 16 -25 35 -44 l35 -34
112 112 112 112 -34 35 c-19 19 -39 35 -45 35 -6 0 -56 -46 -113 -103z m138
48 c10 -13 -1 -29 -71 -100 -45 -47 -88 -85 -94 -85 -6 0 -16 5 -23 12 -10 10
7 31 75 100 48 48 91 88 94 88 4 0 12 -7 19 -15z"/>
<path d="M1846 2542 c-2 -4 -7 -24 -11 -45 -7 -35 -6 -37 18 -37 34 0 77 17
77 30 0 5 -13 10 -30 10 -25 0 -30 4 -30 25 0 24 -13 34 -24 17z"/>
<path d="M256 1836 c4 -18 -9 -58 -46 -138 -29 -62 -57 -138 -62 -168 -6 -30
-15 -65 -21 -77 -6 -13 -7 -26 -3 -30 13 -13 60 -10 74 4 16 16 125 18 153 3
20 -11 24 -4 11 17 -12 20 -60 33 -119 33 -55 0 -55 0 -49 28 4 15 34 83 66
152 33 69 60 133 60 143 0 21 -35 57 -55 57 -11 0 -14 -7 -9 -24z"/>
<path d="M1622 1757 c-51 -56 -98 -110 -105 -119 -7 -9 -24 -19 -39 -22 -29
-5 -81 -36 -61 -36 6 0 24 5 39 10 15 6 28 9 31 7 2 -2 -4 -20 -12 -40 -16
-38 -19 -84 -9 -111 10 -25 19 -19 20 14 1 17 17 56 37 88 35 56 36 57 87 60
47 3 52 1 45 -15 -14 -37 -18 -132 -5 -148 20 -24 29 -18 35 23 15 94 27 132
42 132 11 0 14 7 9 23 -3 13 3 52 14 88 25 83 25 101 -3 127 -13 12 -25 22
-28 21 -2 0 -46 -46 -97 -102z m64 -61 c-17 -58 -27 -64 -70 -47 -18 7 -15 13
29 59 26 29 50 50 52 48 3 -3 -2 -30 -11 -60z"/>
<path d="M2654 1849 c-44 -10 -80 -41 -69 -59 3 -5 11 -8 16 -5 14 10 11 -9
-21 -110 -41 -125 -48 -187 -26 -220 22 -33 34 -32 28 4 -4 32 23 136 38 146
5 3 20 -16 32 -42 13 -26 32 -52 43 -58 26 -13 80 -65 69 -66 -5 0 1 -4 14
-10 14 -5 30 -5 40 0 10 5 38 7 63 4 40 -5 50 -2 80 25 l35 30 16 -29 c22 -37
61 -39 112 -4 l38 26 20 -26 c42 -53 109 -23 149 69 18 40 33 59 57 70 36 18
36 14 -5 -40 -26 -35 -28 -44 -10 -44 7 0 30 27 51 60 21 33 41 59 43 57 2 -3
-8 -30 -22 -62 -14 -32 -25 -66 -25 -77 0 -63 57 -77 113 -28 19 17 37 30 40
30 3 0 7 -12 9 -27 2 -22 9 -29 31 -31 23 -3 37 5 68 38 29 31 39 36 39 23 0
-32 29 -63 58 -63 32 0 129 91 117 109 -4 7 -23 -5 -52 -34 -26 -25 -50 -45
-55 -45 -24 0 8 108 83 278 21 49 22 55 9 79 -8 14 -25 30 -38 34 -20 8 -22 6
-17 -11 4 -13 -6 -47 -26 -91 l-32 -70 -37 6 c-46 8 -81 -18 -116 -87 -40 -78
-144 -170 -144 -127 0 6 17 42 38 81 l37 69 -27 24 c-16 14 -28 34 -28 48 0
30 -24 52 -46 43 -13 -5 -15 -15 -10 -49 6 -42 6 -43 -29 -60 -46 -22 -55 -21
-55 3 0 12 -12 33 -26 47 -21 21 -32 25 -66 20 -22 -3 -48 -13 -59 -23 -18
-16 -20 -16 -37 -1 -25 23 -68 21 -93 -4 -12 -12 -32 -46 -46 -78 -49 -107
-143 -174 -143 -101 0 24 7 33 39 50 76 38 103 103 56 134 -36 23 -49 20 -85
-21 -42 -48 -60 -92 -60 -148 0 -53 -18 -67 -59 -44 -29 16 -71 91 -71 125 0
15 12 30 35 44 53 33 78 75 79 131 1 36 -4 54 -19 68 -24 24 -86 33 -141 20z
m92 -25 c34 -9 47 -48 30 -89 -17 -40 -50 -64 -101 -72 -36 -6 -37 -5 -30 18
4 13 19 46 32 73 13 26 22 54 19 62 -6 15 13 18 50 8z m234 -193 c0 -13 -61
-63 -68 -56 -6 6 48 65 60 65 4 0 8 -4 8 -9z m172 -14 c-2 -12 2 -15 14 -10
15 6 16 1 11 -33 -7 -44 -72 -114 -107 -114 -23 0 -25 16 -9 71 21 67 101 144
91 86z m583 -13 c-23 -55 -97 -146 -109 -133 -2 2 2 24 10 49 14 50 72 120 98
120 15 0 15 -3 1 -36z m-415 6 c0 -16 -7 -20 -32 -20 l-33 1 24 19 c30 25 41
25 41 0z m-27 -102 c-40 -68 -85 -62 -67 9 8 33 13 39 44 43 43 6 49 -8 23
-52z"/>
<path d="M2277 1823 c-3 -16 -17 -54 -32 -87 -26 -58 -26 -58 -61 -52 -48 10
-83 -17 -124 -96 -35 -68 -86 -128 -107 -128 -20 0 -16 15 22 100 19 43 35 82
35 87 0 6 -9 18 -20 28 -20 18 -22 18 -75 -35 l-53 -53 5 40 c4 34 2 43 -18
57 -24 16 -24 16 -36 -26 -6 -24 -24 -72 -38 -108 -25 -58 -26 -67 -14 -89 19
-34 35 -37 43 -7 3 13 26 46 51 72 l44 49 -6 -47 c-11 -88 43 -126 105 -73
l30 25 6 -25 c9 -37 48 -33 94 9 l37 35 15 -32 c23 -48 60 -48 113 -1 48 43
60 60 52 74 -3 5 -25 -11 -49 -35 -23 -25 -48 -45 -56 -45 -22 0 -5 69 49 197
28 67 51 127 51 135 0 20 -29 58 -44 58 -8 0 -16 -12 -19 -27z m-82 -205 c-9
-31 -46 -86 -81 -123 -28 -29 -29 -29 -32 -8 -4 28 22 79 61 121 37 38 62 43
52 10z"/>
<path d="M860 1725 c-10 -12 -10 -21 0 -45 12 -28 10 -34 -24 -85 -20 -31 -54
-73 -76 -95 -73 -73 -79 -45 -19 77 34 68 39 86 29 98 -15 18 -47 20 -52 3 -3
-8 -12 -9 -37 0 -54 19 -93 -11 -136 -104 -36 -79 -118 -139 -140 -103 -12 19
4 57 27 63 33 8 86 60 94 91 5 22 2 31 -17 46 -49 38 -85 15 -134 -81 -58
-114 19 -205 112 -134 19 14 35 24 36 23 30 -57 52 -61 92 -19 l29 30 12 -30
c9 -21 20 -30 37 -30 37 0 108 63 152 134 43 71 67 90 37 29 -39 -76 -45 -111
-28 -138 21 -32 51 -32 99 1 21 14 39 24 40 22 27 -53 41 -58 55 -21 5 15 28
48 50 73 l41 45 -6 -47 c-7 -61 14 -98 56 -98 22 0 39 11 70 46 23 26 41 51
41 55 0 19 -22 7 -56 -31 -35 -39 -64 -52 -64 -29 0 6 16 46 35 89 19 43 35
82 35 87 0 6 -9 18 -20 28 -20 18 -22 18 -70 -30 l-50 -49 0 35 c0 35 -14 59
-35 59 -5 0 -18 -28 -28 -62 -15 -50 -29 -73 -71 -115 -80 -80 -103 -64 -46
32 36 61 38 88 5 109 -15 10 -25 26 -25 39 0 22 -16 47 -31 47 -4 0 -12 -7
-19 -15z m27 -27 c-3 -8 -6 -5 -6 6 -1 11 2 17 5 13 3 -3 4 -12 1 -19z m-386
-77 c-10 -18 -53 -51 -68 -51 -4 0 8 16 27 35 37 38 57 46 41 16z m189 7 c0
-27 -93 -158 -111 -158 -24 0 32 133 66 156 24 17 45 18 45 2z"/>
<path d="M956 1248 c7 -21 -6 -24 -24 -6 -9 9 -12 9 -12 0 0 -7 -7 -12 -15
-12 -9 0 -15 -9 -15 -22 1 -21 2 -21 11 -5 8 13 23 17 69 17 47 0 59 -3 63
-17 4 -14 5 -12 6 5 1 13 -5 22 -14 22 -8 0 -15 5 -15 11 0 8 -5 7 -15 -1 -13
-11 -18 -10 -30 6 -13 16 -14 17 -9 2z"/>
<path d="M2151 1247 c-7 -10 -20 -17 -27 -17 -10 0 -14 -16 -14 -60 l0 -60 60
0 60 0 0 60 c0 60 0 60 -29 60 -20 0 -31 6 -33 17 -3 15 -4 15 -17 0z m64 -37
c-3 -5 -24 -10 -46 -10 -21 0 -39 5 -39 10 0 6 21 10 46 10 27 0 43 -4 39 -10z
m0 -40 c-3 -5 -24 -10 -46 -10 -21 0 -39 5 -39 10 0 6 21 10 46 10 27 0 43 -4
39 -10z m0 -35 c0 -5 -19 -11 -42 -13 -34 -3 -43 0 -43 13 0 13 9 16 43 13 23
-2 42 -7 42 -13z"/>
<path d="M2521 1253 c-1 -8 -15 -13 -36 -13 -19 0 -35 -4 -35 -10 0 -5 12 -10
28 -10 l27 -1 -24 -19 c-23 -20 -23 -20 -2 -20 29 0 26 -16 -6 -47 -16 -14
-21 -24 -13 -21 8 2 24 19 35 36 26 40 33 40 37 0 2 -28 8 -34 31 -36 15 -2
27 1 27 6 0 5 -10 8 -22 8 -24 -1 -35 23 -24 51 5 12 9 13 21 3 8 -7 15 -8 15
-2 0 16 -27 34 -35 22 -10 -17 -45 -12 -39 5 4 10 20 15 45 15 21 0 39 5 39
10 0 6 -13 10 -29 10 -16 0 -32 6 -34 13 -4 10 -6 10 -6 0z"/>
<path d="M3040 1236 c0 -19 -6 -29 -20 -33 -13 -3 -20 -14 -20 -29 0 -22 4
-24 44 -24 36 0 46 -4 51 -20 3 -11 11 -20 18 -20 8 0 8 3 -1 12 -7 7 -12 27
-12 45 0 26 -4 33 -19 33 -11 0 -23 5 -26 10 -4 6 7 10 24 10 17 0 31 5 31 10
0 6 -10 10 -23 10 -13 0 -28 5 -35 12 -9 9 -12 6 -12 -16z m50 -56 c0 -5 -18
-10 -40 -10 -22 0 -40 5 -40 10 0 6 18 10 40 10 22 0 40 -4 40 -10z"/>
<path d="M2000 1175 c0 -62 -3 -74 -17 -78 -10 -3 6 -5 35 -6 31 -1 52 3 52
10 0 6 -9 8 -20 4 -17 -6 -20 -2 -20 29 0 29 4 36 20 36 11 0 20 5 20 10 0 6
-9 10 -20 10 -14 0 -20 7 -20 24 0 13 -7 26 -15 30 -13 4 -15 -7 -15 -69z"/>
<path d="M2333 1243 c49 -3 57 -7 57 -23 0 -17 -7 -20 -55 -20 l-55 0 0 -45 0
-45 64 0 c60 0 89 12 71 28 -4 4 -10 1 -12 -5 -3 -8 -25 -13 -59 -13 l-55 0 3
33 c3 32 4 32 56 32 l52 0 0 33 0 32 -62 -2 -63 -2 58 -3z"/>
<path d="M2680 1234 c0 -9 -7 -14 -17 -12 -21 3 -43 -9 -43 -24 0 -6 9 -8 20
-5 11 3 23 1 26 -4 3 -5 0 -9 -5 -9 -6 0 -11 -7 -11 -15 0 -8 -4 -15 -10 -15
-5 0 -10 -4 -10 -10 0 -5 10 -10 23 -10 l22 0 -25 -20 c-31 -24 -9 -26 32 -2
28 16 30 16 42 0 7 -10 18 -18 25 -18 15 0 14 27 -1 33 -8 3 -5 6 5 6 10 1 17
7 14 14 -2 6 -14 11 -25 9 -19 -3 -22 2 -22 30 0 21 3 28 8 20 10 -15 45 -5
39 12 -2 6 -15 10 -29 8 -16 -1 -28 4 -32 13 -7 20 -26 19 -26 -1z m10 -64 c0
-5 -5 -10 -11 -10 -5 0 -7 5 -4 10 3 6 8 10 11 10 2 0 4 -4 4 -10z"/>
<path d="M1125 1230 c-27 -4 -44 -8 -38 -8 7 -1 19 -15 28 -32 15 -29 15 -30
-10 -36 -14 -3 -25 -12 -25 -20 0 -19 13 -18 55 7 20 12 38 19 41 17 9 -10 -8
-38 -23 -38 -8 0 -13 -6 -10 -12 2 -7 14 -13 27 -13 28 0 37 24 39 98 1 52 7
49 -84 37z m53 -32 c-2 -13 -11 -24 -23 -26 -11 -3 -17 -1 -12 4 4 4 0 16 -10
26 -15 17 -14 18 16 18 28 0 32 -3 29 -22z"/>
<path d="M1426 1225 c4 -8 10 -15 15 -15 5 0 9 7 9 15 0 8 -7 15 -15 15 -9 0
-12 -6 -9 -15z"/>
<path d="M1470 1230 c0 -5 11 -10 25 -10 16 0 25 -6 25 -15 0 -9 -9 -15 -25
-15 -23 0 -25 -3 -25 -51 l0 -50 43 3 c35 3 43 7 45 26 3 23 3 23 -21 8 -27
-18 -37 -13 -37 21 0 18 5 23 25 23 22 0 25 4 25 35 0 34 -1 35 -40 35 -22 0
-40 -4 -40 -10z"/>
<path d="M1635 1230 c39 -7 39 -7 8 -9 -18 0 -33 -5 -33 -10 0 -6 15 -12 33
-14 24 -3 20 -4 -16 -5 -44 -2 -47 -3 -33 -18 20 -20 20 -31 0 -42 -12 -7 -13
-11 -4 -17 6 -4 17 -2 23 4 17 17 31 13 17 -4 -10 -12 -9 -16 3 -21 21 -7 37
3 37 23 0 14 3 14 20 -2 16 -14 23 -16 32 -7 9 9 8 15 -7 25 -13 10 -15 16 -6
21 6 4 9 12 6 17 -4 5 -1 9 4 9 6 0 11 5 11 10 0 6 -7 10 -15 10 -8 0 -15 9
-15 20 0 18 -6 20 -52 19 l-53 -2 40 -7z m5 -60 c0 -5 -2 -10 -4 -10 -3 0 -8
5 -11 10 -3 6 -1 10 4 10 6 0 11 -4 11 -10z m60 6 c0 -11 -19 -15 -25 -6 -3 5
1 10 9 10 9 0 16 -2 16 -4z"/>
<path d="M1942 1224 c3 -17 21 -21 26 -6 1 5 -4 12 -13 16 -11 4 -15 1 -13
-10z"/>
<path d="M949 1191 c28 -5 32 -8 20 -18 -8 -6 -30 -13 -49 -16 l-35 -4 38 -1
c25 -2 37 -7 37 -17 0 -8 -7 -15 -15 -15 -8 0 -15 -4 -15 -10 0 -20 31 -9 40
14 6 18 18 26 42 29 l33 4 -35 2 -35 1 25 20 25 20 -55 -2 c-46 0 -49 -2 -21
-7z"/>
<path d="M1418 1153 c6 -57 10 -63 26 -41 18 25 8 88 -14 88 -15 0 -17 -7 -12
-47z"/>
<path d="M1928 1178 c7 -7 12 -27 12 -46 0 -38 15 -39 39 -2 10 14 11 21 4 16
-9 -5 -13 1 -13 18 0 22 -5 26 -27 26 -21 0 -24 -3 -15 -12z"/>
<path d="M2800 1180 c0 -6 32 -10 75 -10 43 0 75 4 75 10 0 6 -32 10 -75 10
-43 0 -75 -4 -75 -10z"/>
<path d="M2987 1133 c-4 -3 -7 -11 -7 -17 0 -6 5 -5 12 2 6 6 9 14 7 17 -3 3
-9 2 -12 -2z"/>
<path d="M3025 1120 c3 -5 8 -10 11 -10 2 0 4 5 4 10 0 6 -5 10 -11 10 -5 0
-7 -4 -4 -10z"/>
<path d="M3060 1120 c0 -5 5 -10 11 -10 5 0 7 5 4 10 -3 6 -8 10 -11 10 -2 0
-4 -4 -4 -10z"/>
<path d="M1255 1100 c3 -5 8 -10 11 -10 2 0 4 5 4 10 0 6 -5 10 -11 10 -5 0
-7 -4 -4 -10z"/>
<path d="M1755 1100 c-3 -5 -1 -10 4 -10 6 0 11 5 11 10 0 6 -2 10 -4 10 -3 0
-8 -4 -11 -10z"/>
</g>
</svg>
